Coordinates
version=1
nRows=29
nColumns=24
inDegrees=yes

Units are S.I. units (second, meters, Newtons, ...)
Angles are in degrees.

endheader
time	pelvis_tilt	pelvis_list	pelvis_rotation	pelvis_tx	pelvis_ty	pelvis_tz	hip_flexion_r	hip_adduction_r	hip_rotation_r	knee_angle_r	ankle_angle_r	subtalar_angle_r	mtp_angle_r	hip_flexion_l	hip_adduction_l	hip_rotation_l	knee_angle_l	ankle_angle_l	subtalar_angle_l	mtp_angle_l	lumbar_extension	lumbar_bending	lumbar_rotation
      0.65000000	      1.01502204	      9.36072675	     -1.45668412	     -0.76777458	      1.05146947	      0.32332224	     23.36328781	     -5.31128791	    -12.63826196	      1.80355350	      7.09131045	      1.53583719	      0.13983785	    -20.99692640	     13.77592878	      0.10626144	     -0.19656070	      1.14908062	     -0.86913124	      0.28274767	      4.81589753	     -7.17604673	     -1.18101394
      0.65416667	      1.14206997	      9.25677027	     -1.42288588	     -0.76184484	      1.05151676	      0.32339530	     23.09832189	     -5.21314013	    -12.43699206	      1.47371087	      7.34325035	      1.35035092	      0.16698333	    -21.31506522	     13.63215062	      0.26217925	     -0.47361677	      0.94469992	     -0.99440366	      0.33809108	      4.71934315	     -6.97382151	     -1.34367495
      0.65833333	      1.14227039	      9.22059162	     -1.35271315	     -0.75594637	      1.05139741	      0.32348083	     22.99372654	     -5.18664807	    -12.30490531	      1.10368645	      7.32142198	      1.31819051	      0.17195630	    -21.45226995	     13.55022762	      0.27848694	     -0.84771501	      0.86984784	     -1.02179577	      0.34967567	      4.76238292	     -6.93032519	     -1.36685494
      0.66250000	      1.16081496	      9.17347380	     -1.28751973	     -0.75001045	      1.05132109	      0.32356263	     22.84770215	     -5.15155853	    -12.11546135	      0.75079969	      7.32872212	      1.23762275	      0.17874633	    -21.60541894	     13.45785319	      0.30802418	     -1.22465638	      0.72103954	     -1.03974497	      0.36607377	      4.81980700	     -6.83301629	     -1.41024066
      0.66666667	      1.27075422	      8.99585078	     -1.32390218	     -0.74373831	      1.05136965	      0.32385569	     22.51946253	     -4.93711110	    -11.61681749	      0.51881698	      7.37828028	      0.68788666	      0.20594620	    -21.90219750	     13.24997777	      0.30325323	     -1.47972965	      0.11978370	     -1.10870283	      0.45031800	      4.74316922	     -6.58933059	     -1.61122709
      0.67083333	      1.27820514	      8.96411479	     -1.24672025	     -0.73781701	      1.05132220	      0.32395832	     22.38017780	     -4.92185674	    -11.47444703	      0.15732188	      7.30723374	      0.62018634	      0.21041500	    -22.00860493	     13.16840256	      0.29707117	     -1.92085967	      0.06795367	     -1.14235810	      0.46765877	      4.79060131	     -6.54616495	     -1.62887054
      0.67500000	      1.44481746	      8.80328871	     -1.31292133	     -0.73166803	      1.05146020	      0.32435437	     21.99058631	     -4.71531383	    -10.93361895	     -0.03766803	      6.87112686	     -0.28772881	      0.25013252	    -22.31279928	     12.98379671	      0.14540590	     -2.25712898	     -0.46648859	     -1.18228483	      0.65101937	      4.67582657	     -6.31871318	     -1.84865238
      0.67916667	      1.41624284	      8.74112934	     -1.19509503	     -0.72558770	      1.05144543	      0.32448257	     21.82814240	     -4.67532314	    -10.75983245	     -0.31632641	      6.81409586	     -0.30276921	      0.25596630	    -22.36932137	     12.84571582	      0.16042897	     -2.73176815	     -0.52786025	     -1.19165101	      0.67186328	      4.72543988	     -6.28038391	     -1.85386723
      0.68333333	      1.44015309	      8.53666254	     -1.12440645	     -0.71913076	      1.05155650	      0.32473696	     21.51864355	     -4.46261998	    -10.44927909	     -0.43889463	      6.37698262	     -0.67030972	      0.28136682	    -22.51121858	     12.56508937	      0.05471169	     -3.12868527	     -1.00609107	     -1.08664514	      0.79320915	      4.77448213	     -6.04247461	     -1.95827444
      0.68750000	      1.45096502	      8.50202997	     -1.06682298	     -0.71318068	      1.05159567	      0.32489551	     21.34275279	     -4.44143298	    -10.32557702	     -0.73306822	      6.28125452	     -0.71386848	      0.28639539	    -22.56521254	     12.48140442	      0.03822223	     -3.66171541	     -1.09619253	     -1.09643678	      0.81471113	      4.84464608	     -5.96659634	     -1.97265464
      0.69166667	      1.44702638	      8.25590787	     -0.98509477	     -0.70656771	      1.05174215	      0.32518784	     21.02790578	     -4.18240927	    -10.09836387	     -0.79613432	      5.60270487	     -1.07833138	      0.30915126	    -22.64592694	     12.14775237	     -0.20573810	     -4.10394102	     -1.68952328	     -0.98959128	      0.93751487	      4.88521708	     -5.70466026	     -2.08223509
      0.69583333	      1.50974773	      8.09057191	     -0.93042317	     -0.70030230	      1.05196634	      0.32548781	     20.69392747	     -4.01074393	     -9.86524139	     -0.90310417	      5.00510481	     -1.52382511	      0.34314434	    -22.74367862	     11.90921672	     -0.42017411	     -4.63531805	     -2.11897174	     -0.87783973	      1.10712855	      4.89816698	     -5.47795757	     -2.18692355
      0.70000000	      1.69262416	      7.93927011	     -0.96469973	     -0.69425354	      1.05230579	      0.32602579	     20.23137289	     -3.81974605	     -9.31443020	     -0.96801694	      4.35609922	     -2.59548200	      0.49510439	    -22.93591632	     11.69731937	     -0.70356161	     -5.19700537	     -2.38495753	     -0.56157900	      1.76590835	      4.72474943	     -5.29499174	     -2.36096302
      0.70416667	      1.68132785	      7.85349526	     -0.85584791	     -0.68816962	      1.05248313	      0.32617542	     20.01348682	     -3.76281893	     -9.24516528	     -1.15551694	      4.18453965	     -2.54152705	      0.50406632	    -22.89685899	     11.52742835	     -0.77364622	     -5.84692944	     -2.55718567	     -0.57230691	      1.80148547	      4.82907415	     -5.20040601	     -2.36133973
      0.70833333	      1.65046703	      7.57958651	     -0.79136921	     -0.68142982	      1.05268860	      0.32635610	     19.75589956	     -3.48734792	     -9.39900966	     -1.24749134	      3.27653124	     -2.57929206	      0.54341527	    -22.88058247	     11.17624994	     -1.09462757	     -6.39429086	     -3.33297888	     -0.38785328	      1.99073671	      5.02433999	     -4.82267484	     -2.43046222
      0.71250000	      1.59859719	      7.37304922	     -0.65841778	     -0.67493151	      1.05291329	      0.32656920	     19.50840407	     -3.29782488	     -9.36709709	     -1.32477475	      2.77684704	     -2.62287008	      0.57412229	    -22.78878124	     10.85362775	     -1.30590918	     -7.05880622	     -3.75410098	     -0.32376396	      2.12874203	      5.04959222	     -4.64221812	     -2.46890426
      0.71666667	      1.82317334	      7.15614007	     -0.67827190	     -0.66877017	      1.05343354	      0.32705157	     18.99363617	     -3.05517883	     -9.05087941	     -1.37327933	      1.82159299	     -3.58380630	      0.87087476	    -22.94729213	     10.55660036	     -1.71824204	     -7.73801344	     -4.30309158	      0.02748008	      3.38116744	      4.90115186	     -4.33459265	     -2.65190196
      0.72083333	      1.77017862	      6.94948528	     -0.58380841	     -0.66226765	      1.05367037	      0.32715923	     18.80260957	     -2.87379612	     -9.24350169	     -1.54971422	      1.29226709	     -3.41765640	      0.92521305	    -22.81216468	     10.25672497	     -1.96616774	     -8.45516462	     -4.90107931	      0.13830451	      3.61012238	      5.12224444	     -4.04490963	     -2.66523522
      0.72500000	      1.75089715	      6.74875455	     -0.49889675	     -0.65585951	      1.05396342	      0.32731660	     18.58292515	     -2.69772938	     -9.38126877	     -1.72706748	      0.72242877	     -3.35613215	      0.98025677	    -22.68026066	      9.95629566	     -2.23605470	     -9.22003992	     -5.47891608	      0.24950183	      3.85142656	      5.23628442	     -3.77825962	     -2.69707592
      0.72916667	      1.70178132	      6.52521075	     -0.36790159	     -0.64941070	      1.05427035	      0.32750555	     18.36939915	     -2.50331524	     -9.46405095	     -1.88101170	      0.29360484	     -3.31954590	      1.01520397	    -22.48533071	      9.59920026	     -2.51171135	    -10.05330248	     -5.95955019	      0.31393561	      4.00806387	      5.25029377	     -3.56628849	     -2.72459527
      0.73333333	      1.75371993	      6.30662411	     -0.35080449	     -0.64306836	      1.05464685	      0.32766600	     18.11391697	     -2.30645056	     -9.65741566	     -2.11920569	     -0.40187294	     -3.35369813	      1.07290165	    -22.38382312	      9.30146367	     -2.83523247	    -10.86968678	     -6.72339725	      0.52134732	      4.28232307	      5.43593299	     -3.19032380	     -2.78086180
      0.73750000	      2.06906545	      5.99338873	     -0.33941458	     -0.63685238	      1.05541897	      0.32836367	     17.46830877	     -1.95680353	     -9.26250884	     -2.12698070	     -1.32174130	     -4.63605344	      2.14702333	    -22.51327206	      8.83078139	     -3.40184175	    -11.76381363	     -7.36349785	      0.77294620	      9.05520078	      5.13584649	     -2.99714116	     -2.87318194
      0.74166667	      1.93826201	      5.78808823	     -0.27295408	     -0.63044243	      1.05560025	      0.32838891	     17.44343976	     -1.79972175	     -9.67386111	     -2.47009736	     -1.69315966	     -4.14642522	      2.20580045	    -22.15951406	      8.53001965	     -3.67289492	    -12.69554919	     -8.13662968	      0.96011508	      9.30193696	      5.34421343	     -2.52054405	     -2.89534267
      0.74583333	      1.89946418	      5.55955290	     -0.19332457	     -0.62411138	      1.05593150	      0.32853005	     17.29335661	     -1.61409043	     -9.94742854	     -2.75775583	     -2.08007330	     -3.85903255	      2.26435313	    -21.87066884	      8.17490759	     -3.96464725	    -13.68658042	     -8.79158237	      1.03795520	      9.56413532	      5.48965218	     -2.24993543	     -2.89868603
      0.75000000	      1.89849524	      5.31436478	     -0.13963651	     -0.61784715	      1.05630720	      0.32871873	     17.11171711	     -1.40751401	    -10.19433514	     -3.05809728	     -2.46668314	     -3.69194059	      2.31852379	    -21.59287961	      7.80283553	     -4.28786980	    -14.71649264	     -9.48747598	      1.13561150	      9.81928714	      5.57354589	     -1.92370722	     -2.91941577
      0.75416667	      1.90993338	      5.06017244	     -0.09303205	     -0.61161639	      1.05670270	      0.32895889	     16.91872971	     -1.18839172	    -10.42205029	     -3.35954045	     -2.85065066	     -3.57460633	      2.37228629	    -21.29933051	      7.41275945	     -4.62384046	    -15.79207132	    -10.21379191	      1.24535782	     10.08158653	      5.64175764	     -1.59143139	     -2.93859279
      0.75833333	      1.92679408	      4.79789059	     -0.06262317	     -0.60544258	      1.05709847	      0.32923099	     16.73055814	     -0.95860175	    -10.63722485	     -3.67784630	     -3.20055507	     -3.48435404	      2.42341760	    -20.98149214	      7.01168734	     -4.96912405	    -16.91522382	    -10.94078246	      1.34926191	     10.33656998	      5.69010762	     -1.25079752	     -2.95529154
      0.76250000	      1.96944186	      4.51603719	      0.01503093	     -0.59928556	      1.05756979	      0.32949428	     16.48021537	     -0.72036750	    -10.76163377	     -3.93324290	     -3.58990956	     -3.35471994	      2.52883292	    -20.66740598	      6.56067148	     -5.22583761	    -18.07329383	    -11.82103898	      1.41674177	     10.86464198	      5.74219885	     -0.89104377	     -2.94034455
      0.76666667	      2.00275648	      4.23028642	      0.02924555	     -0.59319162	      1.05797580	      0.32984408	     16.28552858	     -0.46106001	    -10.98839920	     -4.27357613	     -3.85827047	     -3.27238158	      2.62063663	    -20.31158029	      6.12182016	     -5.58595015	    -19.27841025	    -12.59483896	      1.48672218	     11.32891110	      5.75019587	     -0.52431856	     -2.93574256
